<?xml version="1.0" encoding="UTF-8" standalone="no"?>
<svg
   xmlns:dc="http://purl.org/dc/elements/1.1/"
   xmlns:cc="http://creativecommons.org/ns#"
   xmlns:rdf="http://www.w3.org/1999/02/22-rdf-syntax-ns#"
   xmlns:svg="http://www.w3.org/2000/svg"
   xmlns="http://www.w3.org/2000/svg"
   xmlns:sodipodi="http://sodipodi.sourceforge.net/DTD/sodipodi-0.dtd"
   xmlns:inkscape="http://www.inkscape.org/namespaces/inkscape"
   version="1.1"
   id="svg62"
   width="170.66667"
   height="170.66667"
   viewBox="0 0 170.66667 170.66667"
   sodipodi:docname="panda_icon.svg"
   inkscape:version="1.0.1 (3bc2e813f5, 2020-09-07, custom)">
  <metadata
     id="metadata68">
    <rdf:RDF>
      <cc:Work
         rdf:about="">
        <dc:format>image/svg+xml</dc:format>
        <dc:type
           rdf:resource="http://purl.org/dc/dcmitype/StillImage" />
        <dc:title></dc:title>
      </cc:Work>
    </rdf:RDF>
  </metadata>
  <defs
     id="defs66" />
  <sodipodi:namedview
     pagecolor="#ffffff"
     bordercolor="#666666"
     borderopacity="1"
     objecttolerance="10"
     gridtolerance="10"
     guidetolerance="10"
     inkscape:pageopacity="0"
     inkscape:pageshadow="2"
     inkscape:window-width="1914"
     inkscape:window-height="1053"
     id="namedview64"
     showgrid="false"
     inkscape:zoom="4.8105467"
     inkscape:cx="85.333336"
     inkscape:cy="85.333336"
     inkscape:window-x="0"
     inkscape:window-y="21"
     inkscape:window-maximized="1"
     inkscape:current-layer="g70" />
  <g
     inkscape:groupmode="layer"
     inkscape:label="Image"
     id="g70">
    <path
       style="fill:#000000;stroke-width:1.33333"
       d="m 38.104882,160.32956 c 0,-1.77777 -0.88889,-2.66667 -2.66667,-2.66667 -2.22222,0 -2.66667,-0.88889 -2.66667,-5.33333 0,-4.44444 -0.44444,-5.33333 -2.66666,-5.33333 -2.44445,0 -2.66667,-0.8889 -2.66667,-10.66667 0,-9.77778 -0.22222,-10.66667 -2.66667,-10.66667 -2.37037,0 -2.66666,-0.88889 -2.66666,-8 0,-7.11111 -0.2963,-8 -2.66667,-8 -2.51852,0 -2.66667,-0.88889 -2.66667,-16.000001 0,-15.111112 0.14815,-16.000001 2.66667,-16.000001 1.77778,0 2.66667,-0.88889 2.66667,-2.666667 0,-1.777778 0.88889,-2.666667 2.66666,-2.666667 2.37037,0 2.66667,-0.888889 2.66667,-8 0,-7.111111 0.2963,-8 2.66667,-8 2.37037,0 2.66666,0.888889 2.66666,8 v 8 h 5.33334 c 4.44444,0 5.33333,0.444444 5.33333,2.666667 0,1.777777 0.88889,2.666667 2.66667,2.666667 1.77777,0 2.66666,0.888889 2.66666,2.666666 0,1.777778 0.88889,2.666667 2.66667,2.666667 1.77778,0 2.66667,0.888889 2.66667,2.666667 0,2.222222 0.88889,2.666666 5.33333,2.666666 4.44444,0 5.33333,0.444444 5.33333,2.666667 0,1.777778 0.88889,2.666668 2.66667,2.666668 1.77778,0 2.66667,0.88889 2.66667,2.66667 0,2.55555 0.88889,2.66667 21.33333,2.66667 20.444448,0 21.333338,-0.11111 21.333338,-2.66667 0,-2.37037 0.88889,-2.66667 8,-2.66667 7.11111,0 8,-0.296297 8,-2.666668 0,-1.777777 0.88889,-2.666667 2.66667,-2.666667 2.22222,0 2.66666,-0.888889 2.66666,-5.333333 0,-4.444444 0.44445,-5.333333 2.66667,-5.333333 1.77778,0 2.66667,-0.88889 2.66667,-2.666667 0,-2.222223 0.88889,-2.666667 5.33333,-2.666667 h 5.33333 v -8 c 0,-7.111111 0.2963,-8 2.66667,-8 2.37037,0 2.66667,0.888889 2.66667,8 0,7.111111 0.29629,8 2.66666,8 1.77778,0 2.66667,0.888889 2.66667,2.666667 0,1.777777 0.88889,2.666667 2.66667,2.666667 2.51852,0 2.66666,0.888889 2.66666,16.000001 0,15.111111 -0.14814,16.000001 -2.66666,16.000001 -2.37038,0 -2.66667,0.88889 -2.66667,8 0,7.11111 -0.29629,8 -2.66667,8 -2.44444,0 -2.66666,0.88889 -2.66666,10.66667 0,9.77777 -0.22223,10.66667 -2.66667,10.66667 -2.22223,0 -2.66667,0.88889 -2.66667,5.33333 0,4.44444 -0.44444,5.33333 -2.66666,5.33333 -1.77778,0 -2.66667,0.8889 -2.66667,2.66667 0,2.51852 -0.88889,2.66667 -16,2.66667 -15.11111,0 -16,-0.14815 -16,-2.66667 0,-2.55556 -0.88889,-2.66667 -21.333338,-2.66667 -20.44444,0 -21.33333,0.11107 -21.33333,2.66667 0,2.51852 -0.88889,2.66667 -16,2.66667 -15.11111,0 -16,-0.14815 -16,-2.66667 z m 90.666668,-10.66667 c 0,-1.77777 0.88889,-2.66666 2.66667,-2.66666 1.77777,0 2.66666,-0.8889 2.66666,-2.66667 0,-1.77777 0.88889,-2.66667 2.66667,-2.66667 2.22222,0 2.66667,-0.88889 2.66667,-5.33333 v -5.33333 h 5.33333 c 4.44444,0 5.33333,-0.44445 5.33333,-2.66667 0,-1.77778 0.8889,-2.66667 2.66667,-2.66667 2.37037,0 2.66667,-0.88889 2.66667,-8 v -8 h -13.33334 c -12.44444,0 -13.33333,-0.17778 -13.33333,-2.66666 0,-1.77778 -0.88889,-2.66667 -2.66667,-2.66667 -1.77778,0 -2.66666,-0.88889 -2.66666,-2.66667 0,-1.777781 -0.88889,-2.666661 -2.66667,-2.666661 -1.77778,0 -2.66667,0.88888 -2.66667,2.666661 0,2.5679 -0.88889,2.66667 -23.999998,2.66667 -23.11111,0 -24,-0.0988 -24,-2.66667 0,-1.777781 -0.88889,-2.666661 -2.66667,-2.666661 -1.77778,0 -2.66667,-0.88889 -2.66667,-2.66667 0,-1.77778 -0.88889,-2.66667 -2.66666,-2.66667 -2.37037,0 -2.66667,0.88889 -2.66667,8.000001 0,7.11111 -0.2963,8 -2.66667,8 -1.77777,0 -2.66666,0.88889 -2.66666,2.66667 0,2.44444 -0.88889,2.66667 -10.66667,2.66667 -9.77778,0 -10.66667,-0.22223 -10.66667,-2.66667 0,-1.77778 -0.88889,-2.66667 -2.66666,-2.66667 -2.37037,0 -2.66667,0.88889 -2.66667,8 0,7.11111 0.2963,8 2.66667,8 1.77777,0 2.66666,0.88889 2.66666,2.66667 0,1.77778 0.88889,2.66667 2.66667,2.66667 1.77778,0 2.66667,0.88889 2.66667,2.66666 0,1.77778 0.88889,2.66667 2.66666,2.66667 1.77778,0 2.66667,0.88889 2.66667,2.66667 0,1.77777 0.88889,2.66666 2.66667,2.66666 1.77777,0 2.66666,0.8889 2.66666,2.66667 0,2.22223 0.88889,2.66667 5.33334,2.66667 4.44444,0 5.33333,0.44444 5.33333,2.66666 0,2.5983 0.88889,2.66667 34.66667,2.66667 33.777778,0 34.666668,-0.0684 34.666668,-2.66667 z M 86.104882,122.99623 c 0,-2.22223 0.88889,-2.66667 5.33333,-2.66667 4.444439,0 5.333329,0.44444 5.333329,2.66667 0,2.22222 -0.88889,2.66666 -5.333329,2.66666 -4.44444,0 -5.33333,-0.44444 -5.33333,-2.66666 z m 0,-48.000009 c 0,-1.777778 -0.88889,-2.666667 -2.66667,-2.666667 -1.77778,0 -2.66667,-0.888889 -2.66667,-2.666667 0,-2.488889 0.88889,-2.666666 13.33334,-2.666666 12.444448,0 13.333338,0.177777 13.333338,2.666666 0,1.777778 -0.88889,2.666667 -2.66668,2.666667 -1.77777,0 -2.66666,0.888889 -2.66666,2.666667 0,2.370371 -0.88889,2.666667 -7.999998,2.666667 -7.11111,0 -8,-0.296296 -8,-2.666667 z m -26.66667,-5.333334 c 0,-1.777777 -0.88889,-2.666666 -2.66667,-2.666666 -1.77777,0 -2.66666,-0.88889 -2.66666,-2.666667 0,-1.777777 -0.88889,-2.666667 -2.66667,-2.666667 -2.22222,0 -2.66667,-0.888889 -2.66667,-5.333333 0,-4.444444 0.44445,-5.333334 2.66667,-5.333334 2.22222,0 2.66667,-0.888889 2.66667,-5.333333 v -5.333333 h 5.33333 c 4.44444,0 5.33333,-0.444445 5.33333,-2.666667 0,-1.777778 0.88889,-2.666667 2.66667,-2.666667 1.77778,0 2.66667,-0.888889 2.66667,-2.666667 0,-2.37037 0.88889,-2.666666 8,-2.666666 h 8 v 10.666667 c 0,9.777777 -0.22223,10.666666 -2.66667,10.666666 -2.22222,0 -2.66667,0.88889 -2.66667,5.333334 0,4.444444 -0.44444,5.333333 -2.66666,5.333333 -1.77778,0 -2.66667,0.88889 -2.66667,2.666667 0,1.777777 -0.88889,2.666667 -2.66667,2.666667 -1.77777,0 -2.66666,0.888889 -2.66666,2.666666 0,2.222223 -0.88889,2.666667 -5.33334,2.666667 -4.44444,0 -5.33333,-0.444444 -5.33333,-2.666667 z m 16,-26.666667 c 0,-1.777777 -0.88889,-2.666666 -2.66667,-2.666666 -1.77777,0 -2.66666,0.888889 -2.66666,2.666666 0,1.777778 0.88889,2.666667 2.66666,2.666667 1.77778,0 2.66667,-0.888889 2.66667,-2.666667 z m 42.666668,26.666667 c 0,-1.777777 -0.88889,-2.666666 -2.66666,-2.666666 -1.77778,0 -2.66667,-0.88889 -2.66667,-2.666667 0,-1.777777 -0.88889,-2.666667 -2.66667,-2.666667 -1.77778,0 -2.66666,-0.888889 -2.66666,-2.666666 0,-1.777778 -0.88889,-2.666667 -2.66668,-2.666667 -1.77777,0 -2.66666,-0.88889 -2.66666,-2.666667 0,-1.777777 -0.88889,-2.666667 -2.666669,-2.666667 -2.44444,0 -2.66667,-0.888889 -2.66667,-10.666666 V 29.662887 h 7.999999 c 7.11112,0 8.00001,0.296296 8.00001,2.666666 0,1.777778 0.88889,2.666667 2.66667,2.666667 1.77777,0 2.66666,0.888889 2.66666,2.666667 0,2.222222 0.88889,2.666667 5.33334,2.666667 4.44444,0 5.33333,0.444444 5.33333,2.666666 0,1.777778 0.88889,2.666667 2.66667,2.666667 1.77777,0 2.66666,0.888889 2.66666,2.666667 0,1.777777 0.88889,2.666666 2.66667,2.666666 2.22222,0 2.66667,0.88889 2.66667,5.333334 0,4.444444 -0.44445,5.333333 -2.66667,5.333333 -1.77778,0 -2.66667,0.88889 -2.66667,2.666667 0,1.777777 -0.88889,2.666667 -2.66666,2.666667 -1.77778,0 -2.66667,0.888889 -2.66667,2.666666 0,2.222223 -0.88889,2.666667 -5.33333,2.666667 -4.44445,0 -5.33334,-0.444444 -5.33334,-2.666667 z M 112.77155,42.99622 c 0,-1.777777 -0.88889,-2.666666 -2.66667,-2.666666 -1.77778,0 -2.66666,0.888889 -2.66666,2.666666 0,1.777778 0.88888,2.666667 2.66666,2.666667 1.77778,0 2.66667,-0.888889 2.66667,-2.666667 z m -74.666668,-24 c 0,-9.7777787 0.22222,-10.6666677 2.66666,-10.6666677 1.77778,0 2.66667,-0.888889 2.66667,-2.666666 0,-2.444445 0.88889,-2.6666673 10.66667,-2.6666673 9.77777,0 10.66666,0.2222223 10.66666,2.6666673 0,1.777777 0.88889,2.666666 2.66667,2.666666 2.22222,0 2.66667,0.888889 2.66667,5.3333337 v 5.333334 h -5.33334 c -4.44444,0 -5.33333,0.444444 -5.33333,2.666666 0,1.777778 -0.88889,2.666667 -2.66667,2.666667 -1.77777,0 -2.66666,0.88889 -2.66666,2.666667 0,2.370371 -0.88889,2.666667 -8,2.666667 h -8 z m 90.666668,8 c 0,-2.370371 -0.88889,-2.666667 -8,-2.666667 h -8 v -8 c 0,-7.1111117 0.29629,-8.0000007 2.66667,-8.0000007 1.77777,0 2.66666,-0.888889 2.66666,-2.666666 0,-2.444445 0.88889,-2.6666673 10.66667,-2.6666673 9.77778,0 10.66667,0.2222223 10.66667,2.6666673 0,1.777777 0.88889,2.666666 2.66666,2.666666 2.44444,0 2.66667,0.888889 2.66667,10.6666677 v 10.666667 h -8 c -7.11111,0 -8,-0.296296 -8,-2.666667 z"
       id="path74" />
  </g>
</svg>
