<?xml version="1.0" encoding="UTF-8" standalone="no"?>
<!-- Created with Inkscape (http://www.inkscape.org/) -->

<svg
   version="1.1"
   id="svg869"
   width="279.40347"
   height="304.70419"
   viewBox="0 0 279.40347 304.70419"
   sodipodi:docname="panda_icon.png.svg"
   inkscape:version="1.3.1 (91b66b0783, 2023-11-16, custom)"
   xmlns:inkscape="http://www.inkscape.org/namespaces/inkscape"
   xmlns:sodipodi="http://sodipodi.sourceforge.net/DTD/sodipodi-0.dtd"
   xmlns="http://www.w3.org/2000/svg"
   xmlns:svg="http://www.w3.org/2000/svg">
  <defs
     id="defs873" />
  <sodipodi:namedview
     id="namedview871"
     pagecolor="#ffffff"
     bordercolor="#666666"
     borderopacity="1.0"
     inkscape:pageshadow="2"
     inkscape:pageopacity="0.0"
     inkscape:pagecheckerboard="0"
     showgrid="false"
     inkscape:zoom="1.9700122"
     inkscape:cx="58.882884"
     inkscape:cy="100.25319"
     inkscape:window-width="1920"
     inkscape:window-height="1131"
     inkscape:window-x="35"
     inkscape:window-y="32"
     inkscape:window-maximized="0"
     inkscape:current-layer="g875"
     inkscape:showpageshadow="2"
     inkscape:deskcolor="#d1d1d1" />
  <g
     inkscape:groupmode="layer"
     inkscape:label="Image"
     id="g875"
     transform="translate(-7.846683,-1.9275002)">
    <path
       style="fill:#000000;stroke-width:2.40249"
       d="m 52.59634,293.98175 c 0,-3.20332 -1.601669,-4.80501 -4.805006,-4.80501 -4.004162,0 -4.805005,-1.60166 -4.805005,-9.60999 0,-8.00832 -0.800826,-9.60999 -4.805006,-9.60999 -4.404575,0 -4.804987,-1.60169 -4.804987,-19.21999 0,-17.61833 -0.400413,-19.22 -4.805006,-19.22 -4.27111,0 -4.805005,-1.60167 -4.805005,-14.415 0,-12.81333 -0.533878,-14.415 -4.804988,-14.415 -4.538058,0 -4.805006,-1.60167 -4.805006,-28.83 0,-27.22833 0.266948,-28.83 4.805006,-28.83 3.203337,0 4.804988,-1.60167 4.804988,-4.805 0,-3.20333 1.601668,-4.805 4.805005,-4.805 4.484668,0 4.805006,-1.60166 4.805006,-24.02499 0,-22.423337 0.320337,-24.025003 4.804987,-24.025003 4.00418,0 4.805006,-1.601667 4.805006,-9.609999 0,-8.008333 0.800843,-9.61 4.805005,-9.61 4.484668,0 4.805006,-1.601667 4.805006,-24.024999 0,-22.42333 0.320319,-24.024997 4.804987,-24.024997 3.203337,0 4.805006,-1.601667 4.805006,-4.805 0,-4.404582 1.601668,-4.805 19.220004,-4.805 17.618318,0 19.219983,0.400418 19.219983,4.805 0,3.203333 1.60167,4.805 4.80501,4.805 3.20334,0 4.805,1.601667 4.805,4.805 0,4.004166 1.60167,4.804998 9.61,4.804998 8.00832,0 9.60999,-0.800832 9.60999,-4.804998 0,-4.404584 1.60167,-4.805 19.22,-4.805 17.61834,0 19.22001,0.400416 19.22001,4.805 0,4.004166 1.60167,4.804998 9.61,4.804998 8.00832,0 9.60999,-0.800832 9.60999,-4.804998 0,-3.203333 1.60167,-4.805 4.80501,-4.805 3.20332,0 4.80499,-1.601667 4.80499,-4.805 0,-4.404582 1.60166,-4.805 19.22,-4.805 17.61833,0 19.22,0.400418 19.22,4.805 0,3.203333 1.60167,4.805 4.80499,4.805 4.48469,0 4.80501,1.601667 4.80501,24.024997 0,22.423332 0.32032,24.024999 4.805,24.024999 4.00416,0 4.80499,1.601667 4.80499,9.61 0,8.008332 0.80082,9.609999 4.80501,9.609999 4.48466,0 4.805,1.601666 4.805,24.025003 0,22.42333 0.32032,24.02499 4.80499,24.02499 3.20334,0 4.805,1.60167 4.805,4.805 0,3.20333 1.60167,4.805 4.80501,4.805 4.53806,0 4.80499,1.60167 4.80499,28.83 0,27.22833 -0.26693,28.83 -4.80499,28.83 -4.27113,0 -4.80501,1.60167 -4.80501,14.415 0,12.81333 -0.53387,14.415 -4.805,14.415 -4.40458,0 -4.80499,1.60167 -4.80499,19.22 0,17.6183 -0.40043,19.21999 -4.805,19.21999 -4.00419,0 -4.80501,1.60167 -4.80501,9.60999 0,8.00833 -0.80083,9.60999 -4.80499,9.60999 -3.20334,0 -4.805,1.60169 -4.805,4.80501 0,4.53806 -1.60167,4.80501 -28.83,4.80501 -27.22833,0 -28.83,-0.26695 -28.83,-4.80501 0,-4.6048 -1.60167,-4.80501 -38.44,-4.80501 -36.83832,0 -38.43999,0.20014 -38.43999,4.80501 0,4.53806 -1.60166,4.80501 -28.829993,4.80501 -27.228347,0 -28.829997,-0.26695 -28.829997,-4.80501 z m 124.92999,-19.22 c 0,-4.27111 1.60165,-4.80499 14.415,-4.80499 12.81333,0 14.415,-0.5339 14.415,-4.80501 0,-4.27111 1.60165,-4.805 14.41499,-4.805 12.81333,0 14.415,-0.53388 14.415,-4.80497 0,-3.20334 -1.60167,-4.80501 -4.805,-4.80501 -3.20334,0 -4.80501,-1.60167 -4.80501,-4.805 0,-4.00417 1.60167,-4.80499 9.61001,-4.80499 h 9.61 v -9.61001 c 0,-8.00833 0.80082,-9.60999 4.805,-9.60999 4.00416,0 4.80499,-1.60167 4.80499,-9.61 v -9.61001 h -19.21999 c -17.61833,0 -19.22,-0.40041 -19.22,-4.80499 0,-4.27112 -1.60167,-4.805 -14.415,-4.805 -12.81333,0 -14.415,0.53388 -14.415,4.805 0,4.53804 -1.60167,4.80499 -28.83,4.80499 -27.22833,0 -28.83,-0.26695 -28.83,-4.80499 0,-4.40459 -1.60167,-4.805 -19.21999,-4.805 -17.618331,0 -19.22,0.40041 -19.22,4.805 0,3.20332 -1.601668,4.80499 -4.805005,4.80499 -3.203337,0 -4.804988,1.60167 -4.804988,4.80501 0,4.27111 -1.601669,4.805 -14.414999,4.805 H 52.59634 v 19.21999 19.22 h 9.609993 c 8.008324,0 9.609993,0.80083 9.609993,4.80501 0,4.27109 1.601668,4.80497 14.414999,4.80497 12.81333,0 14.414995,0.53389 14.414995,4.805 0,3.20332 1.60167,4.80501 4.80501,4.80501 3.20334,0 4.805,1.60167 4.805,4.80499 0,4.57618 1.60167,4.805 33.63499,4.805 32.03334,0 33.63501,-0.22871 33.63501,-4.805 z m -38.44,-48.04997 c 0,-4.00418 1.60167,-4.805 9.60999,-4.805 8.00833,0 9.61,0.80082 9.61,4.805 0,4.00416 -1.60167,4.80499 -9.61,4.80499 -8.00832,0 -9.60999,-0.80083 -9.60999,-4.80499 z m 48.04999,-48.05 c 0,-4.27112 1.60167,-4.80501 14.415,-4.80501 12.81333,0 14.415,-0.53389 14.415,-4.805 0,-3.20333 1.60167,-4.805 4.805,-4.805 4.00417,0 4.80499,-1.60167 4.80499,-9.61 0,-8.00833 0.80085,-9.61 4.80501,-9.61 3.20333,0 4.805,-1.60167 4.805,-4.805 0,-4.00416 1.60167,-4.805 9.61,-4.805 h 9.60999 v -24.02499 c 0,-22.423337 -0.32032,-24.025003 -4.80499,-24.025003 -3.20334,0 -4.805,-1.601667 -4.805,-4.805001 0,-3.203331 -1.60167,-4.804998 -4.80501,-4.804998 -3.20332,0 -4.80499,-1.601668 -4.80499,-4.805 0,-3.203333 -1.60167,-4.805 -4.805,-4.805 -3.20334,0 -4.80501,-1.601667 -4.80501,-4.805 0,-3.203332 -1.60167,-4.804999 -4.80499,-4.804999 -3.20333,0 -4.805,-1.601668 -4.805,-4.805 0,-4.271112 -1.60167,-4.805 -14.415,-4.805 -12.81333,0 -14.415,-0.533888 -14.415,-4.805 0,-4.004166 -1.60167,-4.804998 -9.60999,-4.804998 -8.00833,0 -9.61,-0.800833 -9.61,-4.805 0,-4.404583 -1.60167,-4.805001 -19.22001,-4.805001 -17.61833,0 -19.22,0.400418 -19.22,4.805001 0,4.404582 -1.60167,4.805 -19.21999,4.805 -17.618331,0 -19.22,0.400416 -19.22,4.804998 0,3.203333 -1.601668,4.805 -4.805005,4.805 -3.203337,0 -4.804988,1.601669 -4.804988,4.805 0,4.004168 -1.601669,4.805 -9.610011,4.805 h -9.609993 v 9.609999 c 0,8.008332 -0.800843,9.61 -4.805006,9.61 -3.203337,0 -4.804987,1.601667 -4.804987,4.804998 0,3.203334 -1.601669,4.805001 -4.805006,4.805001 -4.484668,0 -4.805005,1.601666 -4.805005,24.025003 v 24.02499 h 9.610011 c 8.008324,0 9.609993,0.80084 9.609993,4.805 0,3.20333 1.601668,4.805 4.805005,4.805 3.203319,0 4.804988,1.60167 4.804988,4.805 0,3.20333 1.601668,4.805 4.805005,4.805 3.203337,0 4.805006,1.60167 4.805006,4.805 0,4.00417 1.601651,4.805 9.609993,4.805 8.008325,0 9.60999,0.80083 9.60999,4.805 0,4.00417 1.60167,4.805 9.61001,4.805 8.00833,0 9.61,0.80083 9.61,4.80501 0,4.57618 1.60167,4.805 33.635,4.805 32.03332,0 33.63499,-0.22882 33.63499,-4.805 z m -48.04999,-38.44001 c 0,-3.20333 -1.60167,-4.805 -4.805,-4.805 -3.20334,0 -4.80501,-1.60166 -4.80501,-4.805 0,-4.48466 1.60167,-4.805 24.02501,-4.805 22.42333,0 24.025,0.32034 24.025,4.805 0,3.20334 -1.60167,4.805 -4.80501,4.805 -3.20332,0 -4.80499,1.60167 -4.80499,4.805 0,4.27111 -1.60167,4.805 -14.415,4.805 -12.81333,0 -14.415,-0.53389 -14.415,-4.805 z m -48.05,-9.61 c 0,-3.20333 -1.601668,-4.805 -4.805005,-4.805 -3.203337,0 -4.804988,-1.60166 -4.804988,-4.805 0,-3.20333 -1.601669,-4.805 -4.805006,-4.805 -4.004162,0 -4.805005,-1.60166 -4.805005,-9.60999 0,-8.008336 0.800843,-9.610005 4.805005,-9.610005 4.004163,0 4.805006,-1.601667 4.805006,-9.609998 v -9.609999 h 9.609993 c 8.008325,0 9.60999,-0.800834 9.60999,-4.805 0,-3.203333 1.60167,-4.805 4.80501,-4.805 3.20334,0 4.805,-1.601667 4.805,-4.805 0,-4.27111 1.60167,-4.804999 14.415,-4.804999 h 14.415 v 19.219999 c 0,17.61833 -0.40043,19.219997 -4.805,19.219997 -4.00417,0 -4.80501,1.601669 -4.80501,9.610005 0,8.00833 -0.80082,9.60999 -4.80499,9.60999 -3.20333,0 -4.805,1.60167 -4.805,4.805 0,3.20334 -1.60167,4.805 -4.80501,4.805 -3.20332,0 -4.80499,1.60167 -4.80499,4.805 0,4.00417 -1.60166,4.805 -9.61001,4.805 -8.008321,0 -9.60999,-0.80083 -9.60999,-4.805 z m 28.83,-48.049994 c 0,-3.203331 -1.60167,-4.804998 -4.80501,-4.804998 -3.20332,0 -4.80499,1.601667 -4.80499,4.804998 0,3.203334 1.60167,4.805001 4.80499,4.805001 3.20334,0 4.80501,-1.601667 4.80501,-4.805001 z m 76.87999,48.049994 c 0,-3.20333 -1.60167,-4.805 -4.80499,-4.805 -3.20334,0 -4.80501,-1.60166 -4.80501,-4.805 0,-3.20333 -1.60167,-4.805 -4.805,-4.805 -3.20334,0 -4.80499,-1.60166 -4.80499,-4.80499 0,-3.20334 -1.60167,-4.805 -4.80501,-4.805 -3.20332,0 -4.80499,-1.60167 -4.80499,-4.805 0,-3.203336 -1.60167,-4.805005 -4.80501,-4.805005 -4.40457,0 -4.805,-1.601667 -4.805,-19.219997 V 58.536779 h 14.415 c 12.81333,0 14.415,0.533889 14.415,4.804999 0,3.203333 1.60167,4.805 4.80501,4.805 3.20332,0 4.80499,1.601667 4.80499,4.805 0,4.004166 1.60166,4.805 9.61001,4.805 8.00832,0 9.60999,0.800833 9.60999,4.804998 0,3.203334 1.60167,4.805001 4.805,4.805001 3.20332,0 4.80499,1.601666 4.80499,4.805 0,3.203331 1.60167,4.804998 4.80501,4.804998 4.27111,0 4.805,1.601669 4.805,14.415005 0,12.81333 -0.53389,14.41499 -4.805,14.41499 -3.20334,0 -4.80501,1.60167 -4.80501,4.805 0,4.27111 -1.60167,4.805 -14.415,4.805 -12.81333,0 -14.41499,-0.53389 -14.41499,-4.805 z m -9.61,-48.049994 c 0,-3.203331 -1.60167,-4.804998 -4.805,-4.804998 -3.20334,0 -4.80499,1.601667 -4.80499,4.804998 0,3.203334 1.60165,4.805001 4.80499,4.805001 3.20333,0 4.805,-1.601667 4.805,-4.805001 z"
       id="path2214" />
    <rect
       style="fill:none;stroke:#000000;stroke-width:1.74961"
       id="rect2416"
       width="277.65387"
       height="302.95459"
       x="8.721488"
       y="2.8023052" />
  </g>
</svg>
